<?xml version="1.0" encoding="UTF-8" standalone="no"?>
<!-- Created with Inkscape (http://www.inkscape.org/) -->

<svg
   width="512"
   height="512"
   viewBox="0 0 135.46666 135.46667"
   version="1.1"
   id="svg1"
   xmlns="http://www.w3.org/2000/svg"
   xmlns:svg="http://www.w3.org/2000/svg">
  <defs
     id="defs1" />
  <g
     id="layer1">
    <rect
       style="vector-effect:non-scaling-stroke;fill:#A78BFA;stroke-width:0.264583;stroke-linecap:round;stroke-miterlimit:1.5;-inkscape-stroke:hairline"
       id="rect1"
       width="108.37333"
       height="108.37333"
       x="13.546668"
       y="13.546668"
       rx="36.896679"
       ry="36.896679" />
    <path
       style="font-size:50.8px;line-height:1.1;font-family:'FONTSPRING DEMO - P22 Mackinac Medium';-inkscape-font-specification:'FONTSPRING DEMO - P22 Mackinac Medium, ';letter-spacing:4.23333px;word-spacing:0px;fill:#f9f9f9;stroke-width:0.264583;stroke-linecap:round;stroke-miterlimit:1.5"
       d="m 92.694488,27.010621 c -3.7313,-4.117304 -12.48058,-6.690619 -21.48718,-6.690619 -19.5572,0 -31.65178,12.480579 -31.65178,26.37648 0,30.751116 48.50699,18.52787 48.50699,44.261021 0,8.10594 -6.30462,16.983877 -19.42852,16.983877 -10.42193,0 -16.98389,-7.07662 -20.97252,-12.223247 -4.8893,-6.304616 -5.40397,-10.164591 -8.74927,-10.164591 -1.67266,0 -3.21665,1.157989 -3.21665,3.731308 0,2.315983 0.25733,4.374633 0.386,7.205283 0.12867,2.83064 0.772,5.789957 2.31599,8.491937 3.60264,6.43328 15.05389,10.16459 26.50514,10.16459 23.80316,0 34.86842,-16.469207 34.86842,-29.593118 0,-31.780443 -48.50699,-20.715188 -48.50699,-44.132356 0,-7.076617 5.66129,-14.410565 16.08322,-14.410565 10.67926,0 16.08322,8.49194 19.29986,13.252573 2.18732,3.216645 3.08798,6.304623 5.91863,6.304623 3.21664,0 3.60264,-3.988639 3.60264,-7.333949 0,-4.117304 -0.90066,-9.3926 -3.47398,-12.223247 z"
       id="text1"
       aria-label="S" />
  </g>
</svg>
